G04*
G04 #@! TF.GenerationSoftware,Altium Limited,Altium Designer,19.1.5 (86)*
G04*
G04 Layer_Physical_Order=1*
G04 Layer_Color=255*
%FSLAX25Y25*%
%MOIN*%
G70*
G01*
G75*
%ADD11C,0.01000*%
%ADD13C,0.00800*%
%ADD28C,0.12000*%
%ADD29C,0.06299*%
%ADD30R,0.06299X0.06299*%
%ADD31C,0.05906*%
%ADD32R,0.05906X0.05906*%
%ADD33C,0.07900*%
%ADD34R,0.07900X0.07900*%
%ADD35R,0.05906X0.05906*%
%ADD36R,0.19685X0.19685*%
%ADD37R,0.19685X0.19685*%
%ADD38C,0.06400*%
%ADD39R,0.06400X0.06400*%
%ADD40R,0.06693X0.06693*%
%ADD41C,0.06693*%
D11*
X169499Y11904D02*
X165500D01*
Y5906D01*
X169499D01*
X165500Y8905D02*
X167499D01*
X175497Y10904D02*
X174497Y11904D01*
X172498D01*
X171498Y10904D01*
Y9904D01*
X172498Y8905D01*
X174497D01*
X175497Y7905D01*
Y6905D01*
X174497Y5906D01*
X172498D01*
X171498Y6905D01*
X181495Y11904D02*
X177496D01*
Y5906D01*
X181495D01*
X177496Y8905D02*
X179496D01*
X186493Y11904D02*
X184494D01*
X183494Y10904D01*
Y6905D01*
X184494Y5906D01*
X186493D01*
X187493Y6905D01*
Y10904D01*
X186493Y11904D01*
X195490Y5906D02*
Y9904D01*
X197490Y11904D01*
X199489Y9904D01*
Y5906D01*
Y8905D01*
X195490D01*
X201488Y5906D02*
Y11904D01*
X205487Y5906D01*
Y11904D01*
X211485Y10904D02*
X210485Y11904D01*
X208486D01*
X207486Y10904D01*
Y6905D01*
X208486Y5906D01*
X210485D01*
X211485Y6905D01*
Y8905D01*
X209486D01*
X217483Y11904D02*
X213485D01*
Y5906D01*
X217483D01*
X213485Y8905D02*
X215484D01*
X219482Y5906D02*
Y11904D01*
X222482D01*
X223481Y10904D01*
Y8905D01*
X222482Y7905D01*
X219482D01*
X221482D02*
X223481Y5906D01*
X229479Y10904D02*
X228480Y11904D01*
X226480D01*
X225481Y10904D01*
Y9904D01*
X226480Y8905D01*
X228480D01*
X229479Y7905D01*
Y6905D01*
X228480Y5906D01*
X226480D01*
X225481Y6905D01*
X37223Y11084D02*
X32500D01*
Y4000D01*
X37223D01*
X32500Y7542D02*
X34861D01*
X39584Y4000D02*
Y8723D01*
X40765D01*
X41946Y7542D01*
Y4000D01*
Y7542D01*
X43126Y8723D01*
X44307Y7542D01*
Y4000D01*
X46669D02*
X49030D01*
X47849D01*
Y8723D01*
X46669D01*
X52572Y4000D02*
X54934D01*
X53753D01*
Y11084D01*
X52572D01*
X58476Y4000D02*
X60837D01*
X59657D01*
Y8723D01*
X58476D01*
X67922Y4000D02*
X65560D01*
X64379Y5181D01*
Y7542D01*
X65560Y8723D01*
X67922D01*
X69102Y7542D01*
Y6361D01*
X64379D01*
X71464Y4000D02*
Y8723D01*
X75006D01*
X76187Y7542D01*
Y4000D01*
X78548D02*
X83271Y8723D01*
X86813D02*
X89175D01*
X90355Y7542D01*
Y4000D01*
X86813D01*
X85632Y5181D01*
X86813Y6361D01*
X90355D01*
X92717Y4000D02*
X95078D01*
X93897D01*
Y11084D01*
X92717D01*
X102163Y4000D02*
X99801D01*
X98620Y5181D01*
Y7542D01*
X99801Y8723D01*
X102163D01*
X103343Y7542D01*
Y6361D01*
X98620D01*
X105705Y8723D02*
X110427Y4000D01*
X108066Y6361D01*
X110427Y8723D01*
X105705Y4000D01*
X112789D02*
X115150D01*
X113970D01*
Y8723D01*
X112789D01*
X118693Y4000D02*
X122235D01*
X123415Y5181D01*
X122235Y6361D01*
X119873D01*
X118693Y7542D01*
X119873Y8723D01*
X123415D01*
D13*
X283000Y9998D02*
Y2500D01*
Y9998D02*
X287642D01*
X283000Y6428D02*
X285857D01*
X292784Y7499D02*
Y2500D01*
Y6428D02*
X292070Y7142D01*
X291355Y7499D01*
X290284D01*
X289570Y7142D01*
X288856Y6428D01*
X288499Y5356D01*
Y4642D01*
X288856Y3571D01*
X289570Y2857D01*
X290284Y2500D01*
X291355D01*
X292070Y2857D01*
X292784Y3571D01*
X299068Y6428D02*
X298354Y7142D01*
X297640Y7499D01*
X296568D01*
X295854Y7142D01*
X295140Y6428D01*
X294783Y5356D01*
Y4642D01*
X295140Y3571D01*
X295854Y2857D01*
X296568Y2500D01*
X297640D01*
X298354Y2857D01*
X299068Y3571D01*
X300675Y5356D02*
X304960D01*
Y6071D01*
X304603Y6785D01*
X304245Y7142D01*
X303531Y7499D01*
X302460D01*
X301746Y7142D01*
X301032Y6428D01*
X300675Y5356D01*
Y4642D01*
X301032Y3571D01*
X301746Y2857D01*
X302460Y2500D01*
X303531D01*
X304245Y2857D01*
X304960Y3571D01*
X314957Y9998D02*
Y2500D01*
X312458Y9998D02*
X317457D01*
X320135Y7499D02*
X319421Y7142D01*
X318707Y6428D01*
X318350Y5356D01*
Y4642D01*
X318707Y3571D01*
X319421Y2857D01*
X320135Y2500D01*
X321206D01*
X321920Y2857D01*
X322634Y3571D01*
X322991Y4642D01*
Y5356D01*
X322634Y6428D01*
X321920Y7142D01*
X321206Y7499D01*
X320135D01*
X324634D02*
Y0D01*
Y6428D02*
X325348Y7142D01*
X326062Y7499D01*
X327133D01*
X327848Y7142D01*
X328562Y6428D01*
X328919Y5356D01*
Y4642D01*
X328562Y3571D01*
X327848Y2857D01*
X327133Y2500D01*
X326062D01*
X325348Y2857D01*
X324634Y3571D01*
D28*
X114779Y136000D02*
D03*
X132890D02*
D03*
X151000D02*
D03*
D29*
X300500Y88500D02*
D03*
X290500D02*
D03*
X280500D02*
D03*
X270500D02*
D03*
X250500D02*
D03*
X240500D02*
D03*
X230500D02*
D03*
X220500D02*
D03*
X210500D02*
D03*
X200500D02*
D03*
X190500D02*
D03*
X180500D02*
D03*
X170500D02*
D03*
X160500D02*
D03*
X150500D02*
D03*
X140500D02*
D03*
X130500D02*
D03*
X120500D02*
D03*
X110500D02*
D03*
X260500D02*
D03*
X300500Y28500D02*
D03*
X290500D02*
D03*
X280500D02*
D03*
X270500D02*
D03*
X260500D02*
D03*
X250500D02*
D03*
X240500D02*
D03*
X230500D02*
D03*
X220500D02*
D03*
X210500D02*
D03*
X200500D02*
D03*
X190500D02*
D03*
X180500D02*
D03*
X170500D02*
D03*
X160500D02*
D03*
X150500D02*
D03*
X140500D02*
D03*
X130500D02*
D03*
X120500D02*
D03*
D30*
X110500D02*
D03*
D31*
X353500Y111500D02*
D03*
Y121500D02*
D03*
X345500Y32000D02*
D03*
Y42000D02*
D03*
X71000Y38500D02*
D03*
Y48500D02*
D03*
Y58500D02*
D03*
Y68500D02*
D03*
Y78500D02*
D03*
X199000Y135000D02*
D03*
X209000D02*
D03*
D32*
X353500Y101500D02*
D03*
X345500Y52000D02*
D03*
X71000Y88500D02*
D03*
D33*
X298500Y142500D02*
D03*
X376500Y42500D02*
D03*
Y82500D02*
D03*
X77500Y122500D02*
D03*
Y142500D02*
D03*
X319500Y70500D02*
D03*
X359500D02*
D03*
X250500Y128000D02*
D03*
Y148000D02*
D03*
D34*
X298500Y122500D02*
D03*
D35*
X189000Y135000D02*
D03*
D36*
X11811Y145669D02*
D03*
Y11811D02*
D03*
X381890Y145669D02*
D03*
D37*
Y11811D02*
D03*
D38*
X30000Y69000D02*
D03*
X35063Y116500D02*
D03*
D39*
X22126Y69000D02*
D03*
X42937Y116500D02*
D03*
D40*
X40000Y94000D02*
D03*
D41*
X30000D02*
D03*
X20000D02*
D03*
M02*
