M48
;Layer_Color=9474304
;FILE_FORMAT=2:5
INCH,LZ
;TYPE=PLATED
T1F00S00C0.03200
T2F00S00C0.03543
T3F00S00C0.03937
T4F00S00C0.04000
T5F00S00C0.04331
T6F00S00C0.04800
T7F00S00C0.05200
T8F00S00C0.11811
%
T01
X0022126Y0069
X003
X0035063Y01165
X0042937
T02
X0071Y00385
Y00485
Y00585
Y00685
Y00785
Y00885
X0189Y0135
X0199
X0209
X03535Y01215
Y01115
Y01015
X03455Y0052
Y0042
Y0032
T03
X01105Y00285
X01205
X01305
X01405
X01505
X01605
X01705
X01805
X01905
X02005
X02105
X02205
Y00885
X02105
X02005
X01905
X01805
X01705
X01605
X01505
X01405
X01305
X01205
X01105
X02305
X02405
X02505
X02605
X02705
X02805
X02905
X03005
Y00285
X02905
X02805
X02705
X02605
X02505
X02405
X02305
T04
X00775Y01225
Y01425
X02505Y0148
Y0128
X02985Y01225
Y01425
T05
X002Y0094
X003
X004
T06
X03195Y00705
X03595
X03765Y00825
Y00425
T07
X0114779Y0136
X013289
X0151
T08
X038189Y0011811
X0011811
Y0145669
X038189
M30
