G04*
G04 #@! TF.GenerationSoftware,Altium Limited,Altium Designer,19.1.5 (86)*
G04*
G04 Layer_Physical_Order=2*
G04 Layer_Color=16711680*
%FSLAX25Y25*%
%MOIN*%
G70*
G01*
G75*
%ADD11C,0.01000*%
%ADD13C,0.00800*%
%ADD28C,0.12000*%
%ADD29C,0.06299*%
%ADD30R,0.06299X0.06299*%
%ADD31C,0.05906*%
%ADD32R,0.05906X0.05906*%
%ADD33C,0.07900*%
%ADD35R,0.05906X0.05906*%
%ADD36R,0.19685X0.19685*%
%ADD37R,0.19685X0.19685*%
%ADD38C,0.06400*%
%ADD40R,0.06693X0.06693*%
%ADD41C,0.06693*%
%ADD42R,0.02362X0.03937*%
%ADD43C,0.02000*%
%ADD44C,0.02500*%
%ADD45C,0.05906*%
D11*
X123277Y12990D02*
X128000D01*
Y5906D01*
X123277D01*
X128000Y9448D02*
X125639D01*
X120916Y5906D02*
Y10628D01*
X119735D01*
X118554Y9448D01*
Y5906D01*
Y9448D01*
X117374Y10628D01*
X116193Y9448D01*
Y5906D01*
X113831D02*
X111470D01*
X112651D01*
Y10628D01*
X113831D01*
X107928Y5906D02*
X105566D01*
X106747D01*
Y12990D01*
X107928D01*
X102024Y5906D02*
X99663D01*
X100843D01*
Y10628D01*
X102024D01*
X92578Y5906D02*
X94940D01*
X96121Y7086D01*
Y9448D01*
X94940Y10628D01*
X92578D01*
X91398Y9448D01*
Y8267D01*
X96121D01*
X89036Y5906D02*
Y10628D01*
X85494D01*
X84313Y9448D01*
Y5906D01*
X81952D02*
X77229Y10628D01*
X73687D02*
X71325D01*
X70145Y9448D01*
Y5906D01*
X73687D01*
X74868Y7086D01*
X73687Y8267D01*
X70145D01*
X67783Y5906D02*
X65422D01*
X66603D01*
Y12990D01*
X67783D01*
X58337Y5906D02*
X60699D01*
X61880Y7086D01*
Y9448D01*
X60699Y10628D01*
X58337D01*
X57157Y9448D01*
Y8267D01*
X61880D01*
X54795Y10628D02*
X50072Y5906D01*
X52434Y8267D01*
X50072Y10628D01*
X54795Y5906D01*
X47711D02*
X45350D01*
X46530D01*
Y10628D01*
X47711D01*
X41807Y5906D02*
X38265D01*
X37085Y7086D01*
X38265Y8267D01*
X40627D01*
X41807Y9448D01*
X40627Y10628D01*
X37085D01*
D13*
X327000Y13404D02*
Y5906D01*
Y13404D02*
X322358D01*
X327000Y9833D02*
X324144D01*
X317216Y10904D02*
Y5906D01*
Y9833D02*
X317931Y10547D01*
X318645Y10904D01*
X319716D01*
X320430Y10547D01*
X321144Y9833D01*
X321501Y8762D01*
Y8048D01*
X321144Y6977D01*
X320430Y6263D01*
X319716Y5906D01*
X318645D01*
X317931Y6263D01*
X317216Y6977D01*
X310932Y9833D02*
X311646Y10547D01*
X312360Y10904D01*
X313432D01*
X314146Y10547D01*
X314860Y9833D01*
X315217Y8762D01*
Y8048D01*
X314860Y6977D01*
X314146Y6263D01*
X313432Y5906D01*
X312360D01*
X311646Y6263D01*
X310932Y6977D01*
X309325Y8762D02*
X305040D01*
Y9476D01*
X305398Y10190D01*
X305755Y10547D01*
X306469Y10904D01*
X307540D01*
X308254Y10547D01*
X308968Y9833D01*
X309325Y8762D01*
Y8048D01*
X308968Y6977D01*
X308254Y6263D01*
X307540Y5906D01*
X306469D01*
X305755Y6263D01*
X305040Y6977D01*
X297542Y13404D02*
Y5906D01*
Y13404D02*
X294328D01*
X293257Y13047D01*
X292900Y12690D01*
X292543Y11976D01*
Y11261D01*
X292900Y10547D01*
X293257Y10190D01*
X294328Y9833D01*
X297542D02*
X294328D01*
X293257Y9476D01*
X292900Y9119D01*
X292543Y8405D01*
Y7334D01*
X292900Y6620D01*
X293257Y6263D01*
X294328Y5906D01*
X297542D01*
X289080Y10904D02*
X289794Y10547D01*
X290508Y9833D01*
X290865Y8762D01*
Y8048D01*
X290508Y6977D01*
X289794Y6263D01*
X289080Y5906D01*
X288008D01*
X287294Y6263D01*
X286580Y6977D01*
X286223Y8048D01*
Y8762D01*
X286580Y9833D01*
X287294Y10547D01*
X288008Y10904D01*
X289080D01*
X283509Y13404D02*
Y7334D01*
X283152Y6263D01*
X282438Y5906D01*
X281724D01*
X284580Y10904D02*
X282081D01*
X279582Y13404D02*
Y7334D01*
X279224Y6263D01*
X278510Y5906D01*
X277796D01*
X280653Y10904D02*
X278153D01*
X274940D02*
X275654Y10547D01*
X276368Y9833D01*
X276725Y8762D01*
Y8048D01*
X276368Y6977D01*
X275654Y6263D01*
X274940Y5906D01*
X273868D01*
X273154Y6263D01*
X272440Y6977D01*
X272083Y8048D01*
Y8762D01*
X272440Y9833D01*
X273154Y10547D01*
X273868Y10904D01*
X274940D01*
X270441D02*
Y5906D01*
Y9476D02*
X269370Y10547D01*
X268655Y10904D01*
X267584D01*
X266870Y10547D01*
X266513Y9476D01*
Y5906D01*
Y9476D02*
X265442Y10547D01*
X264728Y10904D01*
X263656D01*
X262942Y10547D01*
X262585Y9476D01*
Y5906D01*
D28*
X114779Y136000D02*
D03*
X132890D02*
D03*
X151000D02*
D03*
D29*
X300500Y88500D02*
D03*
X290500D02*
D03*
X280500D02*
D03*
X270500D02*
D03*
X250500D02*
D03*
X240500D02*
D03*
X230500D02*
D03*
X220500D02*
D03*
X210500D02*
D03*
X200500D02*
D03*
X190500D02*
D03*
X180500D02*
D03*
X170500D02*
D03*
X160500D02*
D03*
X150500D02*
D03*
X140500D02*
D03*
X130500D02*
D03*
X120500D02*
D03*
X110500D02*
D03*
X260500D02*
D03*
X300500Y28500D02*
D03*
X290500D02*
D03*
X280500D02*
D03*
X270500D02*
D03*
X260500D02*
D03*
X250500D02*
D03*
X240500D02*
D03*
X230500D02*
D03*
X220500D02*
D03*
X210500D02*
D03*
X200500D02*
D03*
X190500D02*
D03*
X180500D02*
D03*
X170500D02*
D03*
X160500D02*
D03*
X150500D02*
D03*
X140500D02*
D03*
X130500D02*
D03*
X120500D02*
D03*
D30*
X110500D02*
D03*
D31*
X353500Y111500D02*
D03*
Y121500D02*
D03*
X345500Y32000D02*
D03*
Y42000D02*
D03*
X71000Y38500D02*
D03*
Y48500D02*
D03*
Y58500D02*
D03*
Y68500D02*
D03*
Y78500D02*
D03*
X199000Y135000D02*
D03*
X209000D02*
D03*
D32*
X353500Y101500D02*
D03*
X345500Y52000D02*
D03*
X71000Y88500D02*
D03*
D33*
X298500Y142500D02*
D03*
Y122500D02*
D03*
X376500Y42500D02*
D03*
Y82500D02*
D03*
X77500Y122500D02*
D03*
Y142500D02*
D03*
X319500Y70500D02*
D03*
X359500D02*
D03*
X250500Y128000D02*
D03*
Y148000D02*
D03*
D35*
X189000Y135000D02*
D03*
D36*
X11811Y145669D02*
D03*
Y11811D02*
D03*
X381890Y145669D02*
D03*
D37*
Y11811D02*
D03*
D38*
X30000Y69000D02*
D03*
X22126D02*
D03*
X35063Y116500D02*
D03*
X42937D02*
D03*
D40*
X40000Y94000D02*
D03*
D41*
X30000D02*
D03*
X20000D02*
D03*
D42*
X332500Y111327D02*
D03*
X325020D02*
D03*
Y100500D02*
D03*
X328760D02*
D03*
X332500D02*
D03*
D43*
X100500Y68500D02*
X120500Y88500D01*
X71000Y68500D02*
X100500D01*
X18500Y51500D02*
X44672D01*
X10500Y59500D02*
X18500Y51500D01*
X30000Y111500D02*
X34000Y115500D01*
X30000Y69000D02*
Y94000D01*
X347500Y66500D02*
Y95000D01*
X337000Y105500D02*
X347500Y95000D01*
X326191Y105500D02*
X337000D01*
X347500Y66500D02*
X355000Y59000D01*
X369000Y121500D02*
X382500D01*
X353500D02*
X369000D01*
X368500Y121000D02*
X369000Y121500D01*
X368500Y61500D02*
Y121000D01*
X366000Y59000D02*
X368500Y61500D01*
X355000Y59000D02*
X366000D01*
X325020Y104328D02*
X326191Y105500D01*
X325020Y100500D02*
Y104328D01*
X382500Y121500D02*
X385328D01*
X381890Y137733D02*
Y145669D01*
Y122110D02*
Y137733D01*
Y122110D02*
X382500Y121500D01*
X381890Y31390D02*
X382500Y32000D01*
X381890Y11811D02*
Y31390D01*
X385328Y121500D02*
X388500Y118328D01*
Y38000D02*
Y118328D01*
X382500Y32000D02*
X388500Y38000D01*
X345500Y32000D02*
X382500D01*
X332500Y142500D02*
X353500Y121500D01*
X298500Y142500D02*
X332500D01*
X293000Y148000D02*
X298500Y142500D01*
X250500Y148000D02*
X293000D01*
X207500Y149000D02*
X249500D01*
X250500Y148000D01*
X189000Y149000D02*
X207500D01*
X102548D02*
X189000D01*
Y135000D02*
Y149000D01*
X209000Y135000D02*
Y147500D01*
X207500Y149000D02*
X209000Y147500D01*
X96048Y142500D02*
X102548Y149000D01*
X77500Y142500D02*
X96048D01*
X10500Y113000D02*
X40000Y142500D01*
X10500Y59500D02*
Y113000D01*
X40000Y142500D02*
X77500D01*
X44672Y51500D02*
X61672Y68500D01*
X71000D01*
X381890Y137733D02*
X384828Y140672D01*
X30000Y94000D02*
Y111500D01*
D44*
X332500Y110732D02*
X333268Y111500D01*
X40000Y112000D02*
X48437Y120437D01*
Y133000D01*
X40000Y94000D02*
Y112000D01*
X353500Y101500D02*
X359500Y95500D01*
Y70500D02*
Y95500D01*
X353500Y111500D02*
X355000Y110000D01*
X337000Y56000D02*
X342500Y61500D01*
X295965Y56000D02*
X337000D01*
X290500Y61465D02*
X295965Y56000D01*
X342500Y61500D02*
Y84500D01*
X332500Y94500D02*
X342500Y84500D01*
X332500Y94500D02*
Y100500D01*
X372500Y52000D02*
X376500Y56000D01*
X345500Y52000D02*
X372500D01*
X376500Y56000D02*
Y82500D01*
X376000D02*
X376500D01*
X324951Y110608D02*
Y111327D01*
X317791D02*
X324951D01*
X316000Y109536D02*
X317791Y111327D01*
X316000Y100000D02*
Y109536D01*
Y100000D02*
X319500Y96500D01*
Y70500D02*
Y96500D01*
X290500Y61465D02*
Y88500D01*
X329451Y100500D02*
X332500D01*
X359500Y70500D02*
X360500Y71500D01*
X190500Y28500D02*
X198952Y20048D01*
X323548D01*
X345500Y42000D01*
X376250Y42250D02*
X376500Y42500D01*
X345750Y42250D02*
X376250D01*
X345500Y42000D02*
X345750Y42250D01*
X149390Y119500D02*
X184002D01*
X199000Y134498D01*
Y135000D01*
X132890Y136000D02*
X149390Y119500D01*
X250500Y127000D02*
Y128000D01*
X112209Y136000D02*
X114779D01*
X109209Y133000D02*
X112209Y136000D01*
X48437Y133000D02*
X109209D01*
X71000Y48500D02*
X150500D01*
X170500Y28500D01*
X150500Y58500D02*
X180500Y28500D01*
X71000Y58500D02*
X150500D01*
X71000Y78500D02*
X71502D01*
X324951Y110608D02*
X325020Y110677D01*
Y111327D01*
D45*
X21000Y64500D02*
Y93000D01*
X20000Y94000D02*
X21000Y93000D01*
Y64500D02*
X25000Y60500D01*
X39000D01*
X57000Y78500D01*
X71000D01*
X130500Y88500D02*
Y103500D01*
X132000Y105000D01*
X77500Y122500D02*
X78905Y121095D01*
Y83496D02*
Y121095D01*
X73910Y78500D02*
X78905Y83496D01*
X71502Y78500D02*
X73910D01*
X333268Y111500D02*
X333500Y111732D01*
X333268Y111500D02*
X353500D01*
X330041Y122500D02*
X333500Y119041D01*
Y111732D02*
Y119041D01*
X298500Y122500D02*
X330041D01*
X132000Y105000D02*
X228500D01*
X114000D02*
X132000D01*
X96500Y122500D02*
X114000Y105000D01*
X256000Y122500D02*
X298500D01*
X250500Y128000D02*
X256000Y122500D01*
X228500Y105000D02*
X250500Y127000D01*
X77500Y122500D02*
X96500D01*
M02*
